<svg width="17" height="16" fill="none" xmlns="http://www.w3.org/2000/svg"><path d="M14.565 10.253c-.08-.667-.515-1.187-1.075-1.342-2.175-.604-2.72-2.088-2.813-3.734C10.293 5.092 9.605 5 8.441 5c-1.165 0-1.851.092-2.237.177-.092 1.646-.637 3.13-2.813 3.734-.56.156-.994.675-1.075 1.342l-.42 3.442C1.75 14.907 2.5 16 3.547 16h9.79c1.044 0 1.796-1.093 1.649-2.305l-.42-3.442zm-6.124 3.239c-1.178 0-2.132-1.12-2.132-2.5s.954-2.5 2.132-2.5c1.177 0 2.132 1.12 2.132 2.5s-.956 2.5-2.132 2.5zM16.839 4c-.02-1.5-3.243-3.999-8.398-4C3.284.001.06 2.5.042 4c-.02 1.5.018 3.452 2.14 3.127 2.482-.381 2.33-1.408 2.33-2.876 0-1.024 2.019-1.271 3.929-1.271 1.91 0 3.928.247 3.929 1.271 0 1.468-.153 2.495 2.33 2.876C16.82 7.452 16.858 5.5 16.84 4z" fill="#333"/></svg>